<svg width="480" height="177" viewBox="0 0 480 177" fill="none" xmlns="http://www.w3.org/2000/svg">
<path d="M476.496 153V160M0 3.5H7.00732H0ZM3.50366 0V7V0ZM35.0365 3.5H42.0438H35.0365ZM38.5402 0V7V0ZM70.073 3.5H77.0803H70.073ZM73.5767 0V7V0ZM105.109 3.5H112.117H105.109ZM108.613 0V7V0ZM140.146 3.5H147.153H140.146ZM143.65 0V7V0ZM175.182 3.5H182.19H175.182ZM178.686 0V7V0ZM210.219 3.5H217.226H210.219ZM213.723 0V7V0ZM17.5182 3.5H24.5256H17.5182ZM21.0219 0V7V0ZM52.5547 3.5H59.5621H52.5547ZM56.0584 0V7V0ZM87.5912 3.5H94.5985H87.5912ZM91.0949 0V7V0ZM122.628 3.5H129.635H122.628ZM126.131 0V7V0ZM157.664 3.5H164.672H157.664ZM161.168 0V7V0ZM192.701 3.5H199.708H192.701ZM196.204 0V7V0ZM227.737 3.5H234.745H227.737ZM231.241 0V7V0ZM245.255 3.5H252.263H245.255ZM248.759 0V7V0ZM280.292 3.5H287.299H280.292ZM283.796 0V7V0ZM315.328 3.5H322.336H315.328ZM318.832 0V7V0ZM350.365 3.5H357.372H350.365ZM353.869 0V7V0ZM385.401 3.5H392.409H385.401ZM388.905 0V7V0ZM420.438 3.5H427.445H420.438ZM423.942 0V7V0ZM455.474 3.5H462.482H455.474ZM458.978 0V7V0ZM262.774 3.5H269.781H262.774ZM266.277 0V7V0ZM297.81 3.5H304.818H297.81ZM301.314 0V7V0ZM332.847 3.5H339.854H332.847ZM336.35 0V7V0ZM367.883 3.5H374.891H367.883ZM371.387 0V7V0ZM402.92 3.5H409.927H402.92ZM406.423 0V7V0ZM437.956 3.5H444.964H437.956ZM441.46 0V7V0ZM472.993 3.5H480H472.993ZM476.496 0V7V0ZM0 139.5H7.00732H0ZM3.50366 136V143V136ZM35.0365 139.5H42.0438H35.0365ZM38.5402 136V143V136ZM70.073 139.5H77.0803H70.073ZM73.5767 136V143V136ZM105.109 139.5H112.117H105.109ZM108.613 136V143V136ZM140.146 139.5H147.153H140.146ZM143.65 136V143V136ZM175.182 139.5H182.19H175.182ZM178.686 136V143V136ZM210.219 139.5H217.226H210.219ZM213.723 136V143V136ZM17.5182 139.5H24.5256H17.5182ZM21.0219 136V143V136ZM52.5547 139.5H59.5621H52.5547ZM56.0584 136V143V136ZM87.5912 139.5H94.5985H87.5912ZM91.0949 136V143V136ZM122.628 139.5H129.635H122.628ZM126.131 136V143V136ZM157.664 139.5H164.672H157.664ZM161.168 136V143V136ZM192.701 139.5H199.708H192.701ZM196.204 136V143V136ZM227.737 139.5H234.745H227.737ZM231.241 136V143V136ZM245.255 139.5H252.263H245.255ZM248.759 136V143V136ZM280.292 139.5H287.299H280.292ZM283.796 136V143V136ZM315.328 139.5H322.336H315.328ZM318.832 136V143V136ZM350.365 139.5H357.372H350.365ZM353.869 136V143V136ZM385.401 139.5H392.409H385.401ZM388.905 136V143V136ZM420.438 139.5H427.445H420.438ZM423.942 136V143V136ZM455.474 139.5H462.482H455.474ZM458.978 136V143V136ZM262.774 139.5H269.781H262.774ZM266.277 136V143V136ZM297.81 139.5H304.818H297.81ZM301.314 136V143V136ZM332.847 139.5H339.854H332.847ZM336.35 136V143V136ZM367.883 139.5H374.891H367.883ZM371.387 136V143V136ZM402.92 139.5H409.927H402.92ZM406.423 136V143V136ZM437.956 139.5H444.964H437.956ZM441.46 136V143V136ZM472.993 139.5H480H472.993ZM476.496 136V143V136ZM0 105.5H7.00732H0ZM3.50366 102V109V102ZM35.0365 105.5H42.0438H35.0365ZM38.5402 102V109V102ZM70.073 105.5H77.0803H70.073ZM73.5767 102V109V102ZM105.109 105.5H112.117H105.109ZM108.613 102V109V102ZM140.146 105.5H147.153H140.146ZM143.65 102V109V102ZM175.182 105.5H182.19H175.182ZM178.686 102V109V102ZM210.219 105.5H217.226H210.219ZM213.723 102V109V102ZM17.5182 105.5H24.5256H17.5182ZM21.0219 102V109V102ZM52.5547 105.5H59.5621H52.5547ZM56.0584 102V109V102ZM87.5912 105.5H94.5985H87.5912ZM91.0949 102V109V102ZM122.628 105.5H129.635H122.628ZM126.131 102V109V102ZM157.664 105.5H164.672H157.664ZM161.168 102V109V102ZM192.701 105.5H199.708H192.701ZM196.204 102V109V102ZM227.737 105.5H234.745H227.737ZM231.241 102V109V102ZM245.255 105.5H252.263H245.255ZM248.759 102V109V102ZM280.292 105.5H287.299H280.292ZM283.796 102V109V102ZM315.328 105.5H322.336H315.328ZM318.832 102V109V102ZM350.365 105.5H357.372H350.365ZM353.869 102V109V102ZM385.401 105.5H392.409H385.401ZM388.905 102V109V102ZM420.438 105.5H427.445H420.438ZM423.942 102V109V102ZM455.474 105.5H462.482H455.474ZM458.978 102V109V102ZM262.774 105.5H269.781H262.774ZM266.277 102V109V102ZM297.81 105.5H304.818H297.81ZM301.314 102V109V102ZM332.847 105.5H339.854H332.847ZM336.35 102V109V102ZM367.883 105.5H374.891H367.883ZM371.387 102V109V102ZM402.92 105.5H409.927H402.92ZM406.423 102V109V102ZM437.956 105.5H444.964H437.956ZM441.46 102V109V102ZM472.993 105.5H480H472.993ZM476.496 102V109V102ZM0 20.5H7.00732H0ZM3.50366 17V24V17ZM35.0365 20.5H42.0438H35.0365ZM38.5402 17V24V17ZM70.073 20.5H77.0803H70.073ZM73.5767 17V24V17ZM105.109 20.5H112.117H105.109ZM108.613 17V24V17ZM140.146 20.5H147.153H140.146ZM143.65 17V24V17ZM175.182 20.5H182.19H175.182ZM178.686 17V24V17ZM210.219 20.5H217.226H210.219ZM213.723 17V24V17ZM17.5182 20.5H24.5256H17.5182ZM21.0219 17V24V17ZM52.5547 20.5H59.5621H52.5547ZM56.0584 17V24V17ZM87.5912 20.5H94.5985H87.5912ZM91.0949 17V24V17ZM122.628 20.5H129.635H122.628ZM126.131 17V24V17ZM157.664 20.5H164.672H157.664ZM161.168 17V24V17ZM192.701 20.5H199.708H192.701ZM196.204 17V24V17ZM227.737 20.5H234.745H227.737ZM231.241 17V24V17ZM245.255 20.5H252.263H245.255ZM248.759 17V24V17ZM280.292 20.5H287.299H280.292ZM283.796 17V24V17ZM315.328 20.5H322.336H315.328ZM318.832 17V24V17ZM350.365 20.5H357.372H350.365ZM353.869 17V24V17ZM385.401 20.5H392.409H385.401ZM388.905 17V24V17ZM420.438 20.5H427.445H420.438ZM423.942 17V24V17ZM455.474 20.5H462.482H455.474ZM458.978 17V24V17ZM262.774 20.5H269.781H262.774ZM266.277 17V24V17ZM297.81 20.5H304.818H297.81ZM301.314 17V24V17ZM332.847 20.5H339.854H332.847ZM336.35 17V24V17ZM367.883 20.5H374.891H367.883ZM371.387 17V24V17ZM402.92 20.5H409.927H402.92ZM406.423 17V24V17ZM437.956 20.5H444.964H437.956ZM441.46 17V24V17ZM472.993 20.5H480H472.993ZM476.496 17V24V17ZM0 88.5H7.00732H0ZM3.50366 85V92V85ZM35.0365 88.5H42.0438H35.0365ZM38.5402 85V92V85ZM70.073 88.5H77.0803H70.073ZM73.5767 85V92V85ZM105.109 88.5H112.117H105.109ZM108.613 85V92V85ZM140.146 88.5H147.153H140.146ZM143.65 85V92V85ZM175.182 88.5H182.19H175.182ZM178.686 85V92V85ZM210.219 88.5H217.226H210.219ZM213.723 85V92V85ZM17.5182 88.5H24.5256H17.5182ZM21.0219 85V92V85ZM52.5547 88.5H59.5621H52.5547ZM56.0584 85V92V85ZM87.5912 88.5H94.5985H87.5912ZM91.0949 85V92V85ZM122.628 88.5H129.635H122.628ZM126.131 85V92V85ZM157.664 88.5H164.672H157.664ZM161.168 85V92V85ZM192.701 88.5H199.708H192.701ZM196.204 85V92V85ZM227.737 88.5H234.745H227.737ZM231.241 85V92V85ZM245.255 88.5H252.263H245.255ZM248.759 85V92V85ZM280.292 88.5H287.299H280.292ZM283.796 85V92V85ZM315.328 88.5H322.336H315.328ZM318.832 85V92V85ZM350.365 88.5H357.372H350.365ZM353.869 85V92V85ZM385.401 88.5H392.409H385.401ZM388.905 85V92V85ZM420.438 88.5H427.445H420.438ZM423.942 85V92V85ZM455.474 88.5H462.482H455.474ZM458.978 85V92V85ZM262.774 88.5H269.781H262.774ZM266.277 85V92V85ZM297.81 88.5H304.818H297.81ZM301.314 85V92V85ZM332.847 88.5H339.854H332.847ZM336.35 85V92V85ZM367.883 88.5H374.891H367.883ZM371.387 85V92V85ZM402.92 88.5H409.927H402.92ZM406.423 85V92V85ZM437.956 88.5H444.964H437.956ZM441.46 85V92V85ZM472.993 88.5H480H472.993ZM476.496 85V92V85ZM0 71.5H7.00732H0ZM3.50366 68V75V68ZM35.0365 71.5H42.0438H35.0365ZM38.5402 68V75V68ZM70.073 71.5H77.0803H70.073ZM73.5767 68V75V68ZM105.109 71.5H112.117H105.109ZM108.613 68V75V68ZM140.146 71.5H147.153H140.146ZM143.65 68V75V68ZM175.182 71.5H182.19H175.182ZM178.686 68V75V68ZM210.219 71.5H217.226H210.219ZM213.723 68V75V68ZM17.5182 71.5H24.5256H17.5182ZM21.0219 68V75V68ZM52.5547 71.5H59.5621H52.5547ZM56.0584 68V75V68ZM87.5912 71.5H94.5985H87.5912ZM91.0949 68V75V68ZM122.628 71.5H129.635H122.628ZM126.131 68V75V68ZM157.664 71.5H164.672H157.664ZM161.168 68V75V68ZM192.701 71.5H199.708H192.701ZM196.204 68V75V68ZM227.737 71.5H234.745H227.737ZM231.241 68V75V68ZM245.255 71.5H252.263H245.255ZM248.759 68V75V68ZM280.292 71.5H287.299H280.292ZM283.796 68V75V68ZM315.328 71.5H322.336H315.328ZM318.832 68V75V68ZM350.365 71.5H357.372H350.365ZM353.869 68V75V68ZM385.401 71.5H392.409H385.401ZM388.905 68V75V68ZM420.438 71.5H427.445H420.438ZM423.942 68V75V68ZM455.474 71.5H462.482H455.474ZM458.978 68V75V68ZM262.774 71.5H269.781H262.774ZM266.277 68V75V68ZM297.81 71.5H304.818H297.81ZM301.314 68V75V68ZM332.847 71.5H339.854H332.847ZM336.35 68V75V68ZM367.883 71.5H374.891H367.883ZM371.387 68V75V68ZM402.92 71.5H409.927H402.92ZM406.423 68V75V68ZM437.956 71.5H444.964H437.956ZM441.46 68V75V68ZM472.993 71.5H480H472.993ZM476.496 68V75V68ZM0 173.5H7.00732H0ZM3.50366 170V177V170ZM35.0365 173.5H42.0438H35.0365ZM38.5402 170V177V170ZM70.073 173.5H77.0803H70.073ZM73.5767 170V177V170ZM105.109 173.5H112.117H105.109ZM108.613 170V177V170ZM140.146 173.5H147.153H140.146ZM143.65 170V177V170ZM175.182 173.5H182.19H175.182ZM178.686 170V177V170ZM210.219 173.5H217.226H210.219ZM213.723 170V177V170ZM17.5182 173.5H24.5256H17.5182ZM21.0219 170V177V170ZM52.5547 173.5H59.5621H52.5547ZM56.0584 170V177V170ZM87.5912 173.5H94.5985H87.5912ZM91.0949 170V177V170ZM122.628 173.5H129.635H122.628ZM126.131 170V177V170ZM157.664 173.5H164.672H157.664ZM161.168 170V177V170ZM192.701 173.5H199.708H192.701ZM196.204 170V177V170ZM227.737 173.5H234.745H227.737ZM231.241 170V177V170ZM245.255 173.5H252.263H245.255ZM248.759 170V177V170ZM280.292 173.5H287.299H280.292ZM283.796 170V177V170ZM315.328 173.5H322.336H315.328ZM318.832 170V177V170ZM350.365 173.5H357.372H350.365ZM353.869 170V177V170ZM385.401 173.5H392.409H385.401ZM388.905 170V177V170ZM420.438 173.5H427.445H420.438ZM423.942 170V177V170ZM455.474 173.5H462.482H455.474ZM458.978 170V177V170ZM262.774 173.5H269.781H262.774ZM266.277 170V177V170ZM297.81 173.5H304.818H297.81ZM301.314 170V177V170ZM332.847 173.5H339.854H332.847ZM336.35 170V177V170ZM367.883 173.5H374.891H367.883ZM371.387 170V177V170ZM402.92 173.5H409.927H402.92ZM406.423 170V177V170ZM437.956 173.5H444.964H437.956ZM441.46 170V177V170ZM472.993 173.5H480H472.993ZM476.496 170V177V170ZM0 37.5H7.00732H0ZM3.50366 34V41V34ZM35.0365 37.5H42.0438H35.0365ZM38.5402 34V41V34ZM70.073 37.5H77.0803H70.073ZM73.5767 34V41V34ZM105.109 37.5H112.117H105.109ZM108.613 34V41V34ZM140.146 37.5H147.153H140.146ZM143.65 34V41V34ZM175.182 37.5H182.19H175.182ZM178.686 34V41V34ZM210.219 37.5H217.226H210.219ZM213.723 34V41V34ZM17.5182 37.5H24.5256H17.5182ZM21.0219 34V41V34ZM52.5547 37.5H59.5621H52.5547ZM56.0584 34V41V34ZM87.5912 37.5H94.5985H87.5912ZM91.0949 34V41V34ZM122.628 37.5H129.635H122.628ZM126.131 34V41V34ZM157.664 37.5H164.672H157.664ZM161.168 34V41V34ZM192.701 37.5H199.708H192.701ZM196.204 34V41V34ZM227.737 37.5H234.745H227.737ZM231.241 34V41V34ZM245.255 37.5H252.263H245.255ZM248.759 34V41V34ZM280.292 37.5H287.299H280.292ZM283.796 34V41V34ZM315.328 37.5H322.336H315.328ZM318.832 34V41V34ZM350.365 37.5H357.372H350.365ZM353.869 34V41V34ZM385.401 37.5H392.409H385.401ZM388.905 34V41V34ZM420.438 37.5H427.445H420.438ZM423.942 34V41V34ZM455.474 37.5H462.482H455.474ZM458.978 34V41V34ZM262.774 37.5H269.781H262.774ZM266.277 34V41V34ZM297.81 37.5H304.818H297.81ZM301.314 34V41V34ZM332.847 37.5H339.854H332.847ZM336.35 34V41V34ZM367.883 37.5H374.891H367.883ZM371.387 34V41V34ZM402.92 37.5H409.927H402.92ZM406.423 34V41V34ZM437.956 37.5H444.964H437.956ZM441.46 34V41V34ZM472.993 37.5H480H472.993ZM476.496 34V41V34ZM0 54.5H7.00732H0ZM3.50366 51V58V51ZM35.0365 54.5H42.0438H35.0365ZM38.5402 51V58V51ZM70.073 54.5H77.0803H70.073ZM73.5767 51V58V51ZM105.109 54.5H112.117H105.109ZM108.613 51V58V51ZM140.146 54.5H147.153H140.146ZM143.65 51V58V51ZM175.182 54.5H182.19H175.182ZM178.686 51V58V51ZM210.219 54.5H217.226H210.219ZM213.723 51V58V51ZM17.5182 54.5H24.5256H17.5182ZM21.0219 51V58V51ZM52.5547 54.5H59.5621H52.5547ZM56.0584 51V58V51ZM87.5912 54.5H94.5985H87.5912ZM91.0949 51V58V51ZM122.628 54.5H129.635H122.628ZM126.131 51V58V51ZM157.664 54.5H164.672H157.664ZM161.168 51V58V51ZM192.701 54.5H199.708H192.701ZM196.204 51V58V51ZM227.737 54.5H234.745H227.737ZM231.241 51V58V51ZM245.255 54.5H252.263H245.255ZM248.759 51V58V51ZM280.292 54.5H287.299H280.292ZM283.796 51V58V51ZM315.328 54.5H322.336H315.328ZM318.832 51V58V51ZM350.365 54.5H357.372H350.365ZM353.869 51V58V51ZM385.401 54.5H392.409H385.401ZM388.905 51V58V51ZM420.438 54.5H427.445H420.438ZM423.942 51V58V51ZM455.474 54.5H462.482H455.474ZM458.978 51V58V51ZM262.774 54.5H269.781H262.774ZM266.277 51V58V51ZM297.81 54.5H304.818H297.81ZM301.314 51V58V51ZM332.847 54.5H339.854H332.847ZM336.35 51V58V51ZM367.883 54.5H374.891H367.883ZM371.387 51V58V51ZM402.92 54.5H409.927H402.92ZM406.423 51V58V51ZM437.956 54.5H444.964H437.956ZM441.46 51V58V51ZM472.993 54.5H480H472.993ZM476.496 51V58V51ZM0 122.5H7.00732H0ZM3.50366 119V126V119ZM35.0365 122.5H42.0438H35.0365ZM38.5402 119V126V119ZM70.073 122.5H77.0803H70.073ZM73.5767 119V126V119ZM105.109 122.5H112.117H105.109ZM108.613 119V126V119ZM140.146 122.5H147.153H140.146ZM143.65 119V126V119ZM175.182 122.5H182.19H175.182ZM178.686 119V126V119ZM210.219 122.5H217.226H210.219ZM213.723 119V126V119ZM17.5182 122.5H24.5256H17.5182ZM21.0219 119V126V119ZM52.5547 122.5H59.5621H52.5547ZM56.0584 119V126V119ZM87.5912 122.5H94.5985H87.5912ZM91.0949 119V126V119ZM122.628 122.5H129.635H122.628ZM126.131 119V126V119ZM157.664 122.5H164.672H157.664ZM161.168 119V126V119ZM192.701 122.5H199.708H192.701ZM196.204 119V126V119ZM227.737 122.5H234.745H227.737ZM231.241 119V126V119ZM245.255 122.5H252.263H245.255ZM248.759 119V126V119ZM280.292 122.5H287.299H280.292ZM283.796 119V126V119ZM315.328 122.5H322.336H315.328ZM318.832 119V126V119ZM350.365 122.5H357.372H350.365ZM353.869 119V126V119ZM385.401 122.5H392.409H385.401ZM388.905 119V126V119ZM420.438 122.5H427.445H420.438ZM423.942 119V126V119ZM455.474 122.5H462.482H455.474ZM458.978 119V126V119ZM262.774 122.5H269.781H262.774ZM266.277 119V126V119ZM297.81 122.5H304.818H297.81ZM301.314 119V126V119ZM332.847 122.5H339.854H332.847ZM336.35 119V126V119ZM367.883 122.5H374.891H367.883ZM371.387 119V126V119ZM402.92 122.5H409.927H402.92ZM406.423 119V126V119ZM437.956 122.5H444.964H437.956ZM441.46 119V126V119ZM472.993 122.5H480H472.993ZM476.496 119V126V119ZM0 156.5H7.00732H0ZM3.50366 153V160V153ZM35.0365 156.5H42.0438H35.0365ZM38.5402 153V160V153ZM70.073 156.5H77.0803H70.073ZM73.5767 153V160V153ZM105.109 156.5H112.117H105.109ZM108.613 153V160V153ZM140.146 156.5H147.153H140.146ZM143.65 153V160V153ZM175.182 156.5H182.19H175.182ZM178.686 153V160V153ZM210.219 156.5H217.226H210.219ZM213.723 153V160V153ZM17.5182 156.5H24.5256H17.5182ZM21.0219 153V160V153ZM52.5547 156.5H59.5621H52.5547ZM56.0584 153V160V153ZM87.5912 156.5H94.5985H87.5912ZM91.0949 153V160V153ZM122.628 156.5H129.635H122.628ZM126.131 153V160V153ZM157.664 156.5H164.672H157.664ZM161.168 153V160V153ZM192.701 156.5H199.708H192.701ZM196.204 153V160V153ZM227.737 156.5H234.745H227.737ZM231.241 153V160V153ZM245.255 156.5H252.263H245.255ZM248.759 153V160V153ZM280.292 156.5H287.299H280.292ZM283.796 153V160V153ZM315.328 156.5H322.336H315.328ZM318.832 153V160V153ZM350.365 156.5H357.372H350.365ZM353.869 153V160V153ZM385.401 156.5H392.409H385.401ZM388.905 153V160V153ZM420.438 156.5H427.445H420.438ZM423.942 153V160V153ZM455.474 156.5H462.482H455.474ZM458.978 153V160V153ZM262.774 156.5H269.781H262.774ZM266.277 153V160V153ZM297.81 156.5H304.818H297.81ZM301.314 153V160V153ZM332.847 156.5H339.854H332.847ZM336.35 153V160V153ZM367.883 156.5H374.891H367.883ZM371.387 153V160V153ZM402.92 156.5H409.927H402.92ZM406.423 153V160V153ZM437.956 156.5H444.964H437.956ZM441.46 153V160V153ZM472.993 156.5H480H472.993Z" stroke="#828282" stroke-width="0.5" stroke-linecap="square"/>
</svg>
